<svg xmlns="http://www.w3.org/2000/svg">
    <symbol id="phone">
        <path d="M12.669 13.1545C12.4344 13.6557 11.9652 13.9063 11.4959 14.1569C10.9094 14.5327 10.4402 14.658 9.85367 14.658C9.03253 14.658 8.21139 14.2822 7.50756 14.0316C6.92103 13.781 6.45181 13.5304 5.86528 13.2798C4.223 12.1522 2.34611 10.1474 1.40767 8.51861C1.05575 7.89214 0.821139 7.39096 0.586528 6.76449C0.351917 5.88743 0 5.13567 0 4.13331C0 3.50684 0.117306 2.88037 0.469222 2.25389C0.703833 1.75272 0.938445 1.25154 1.40767 1.00095C1.75958 1.00095 2.34611 0.875656 2.69803 0.875656C2.81533 0.875656 2.81533 0.875656 2.93264 0.875656C3.16725 1.00095 3.28456 1.37683 3.40186 1.62742C3.63647 2.25389 3.98839 2.75507 4.223 3.38154C4.45761 3.63213 4.69222 3.88272 4.69222 4.13331C4.69222 4.75978 3.04994 5.63684 3.04994 6.13802C3.04994 6.38861 3.28456 6.76449 3.40186 7.01508C4.34031 8.7692 5.51336 10.0221 7.15564 11.0245C7.39025 11.1498 7.74217 11.4004 7.97678 11.4004C8.446 11.4004 9.26714 9.64626 9.85367 9.64626C10.0883 9.64626 10.3229 9.89685 10.5575 10.1474C11.0267 10.5233 11.6133 10.7739 12.0825 11.1498C12.3171 11.2751 12.669 11.4004 12.7863 11.651C12.7863 11.7763 12.7863 11.7763 12.7863 11.9016C12.9036 12.1522 12.7863 12.7786 12.669 13.1545Z"/>
    </symbol>

    <symbol id="surf">
        <path d="M47.6224 4.37754C47.352 4.10692 46.9749 3.97023 46.5941 4.00545C46.4351 4.01989 42.6411 4.38072 37.4378 6.12723C20.5036 11.3426 9.29627 27.7628 4.08474 39.6415C3.7567 40.4259 4.41948 41.4759 5.41151 41.3891L11.1678 40.8291L10.6078 46.5849C10.5465 47.4123 11.3497 48.2837 12.3555 47.9116C33.0348 38.4891 45.6483 24.0671 47.9947 5.40583C48.0294 5.0248 47.8931 4.64799 47.6224 4.37754ZM30.9597 32.7069C28.6747 34.7864 26.4223 36.574 24.3403 38.0798V16.1341C26.5228 14.3454 28.7848 12.8957 30.9597 11.7252V32.7069ZM18.3821 41.9794C16.3358 43.1817 14.6086 44.0592 13.387 44.6383L13.885 39.5196C13.9589 38.8536 13.3427 38.0111 12.4774 38.1122L7.36042 38.6099C9.08912 34.9423 13.7449 26.4028 21.7627 18.4555V39.8653C20.5271 40.6844 19.3872 41.3889 18.3821 41.9794ZM43.405 13.8128C41.8914 18.2983 38.9521 24.7742 33.5372 30.2415V10.4412C37.0645 8.73768 42.4534 7.21067 45.194 6.80577C44.9314 8.3448 44.4041 10.8517 43.405 13.8128Z"/>
    </symbol>

    <symbol id="pyro">
        <path d="M46.7109 19.5547H37.4859C37.4867 19.5466 37.4881 19.5386 37.489 19.5305C38.5624 18.6069 39.4204 17.5102 40.0436 16.264C40.2435 15.8644 40.2221 15.3899 39.9873 15.0099C39.7523 14.6298 39.3374 14.3984 38.8906 14.3984H36.9008C36.4691 13.1771 35.8389 12.0492 35.0187 11.0309C35.1239 9.62022 34.955 8.23997 34.5149 6.9198C34.3737 6.49596 34.023 6.1755 33.5882 6.07289C33.1533 5.97019 32.6965 6.10013 32.3805 6.41595L30.9706 7.82584C29.8057 7.26897 28.5654 6.91748 27.2672 6.77663C26.2944 5.63065 25.1731 4.72358 23.9983 4.13612C23.5987 3.93631 23.1243 3.95762 22.7441 4.19249C22.3642 4.42736 22.1328 4.84226 22.1328 5.28905V7.36479C20.9116 7.79645 19.7835 8.4268 18.7653 9.2469C17.3548 9.1418 15.9743 9.31067 14.6544 9.75076C14.2305 9.89204 13.9101 10.2427 13.8074 10.6775C13.7048 11.1123 13.8346 11.5693 14.1505 11.8851L15.5601 13.2948C15.0029 14.4606 14.6513 15.7017 14.5107 17.0009C13.647 17.7441 12.9231 18.5995 12.3484 19.5548H5.28906C4.57716 19.5548 4 20.1319 4 20.8438V26.0001C4 26.712 4.57716 27.2891 5.28906 27.2891H6.66406V46.711C6.66406 47.4229 7.24122 48.0001 7.95312 48.0001H13.1094C13.8213 48.0001 14.3984 47.4229 14.3984 46.711V42.3416L26 37.701L37.6016 42.3416V46.7109C37.6016 47.4228 38.1787 48 38.8906 48H44.0469C44.7588 48 45.3359 47.4228 45.3359 46.7109V27.2891H46.7109C47.4228 27.2891 48 26.7119 48 26V20.8437C48 20.1318 47.4228 19.5547 46.7109 19.5547ZM16.5384 18.6726C16.8324 18.445 17.0138 18.1015 17.0359 17.7302C17.122 16.2914 17.5325 14.9395 18.2563 13.7122C18.5549 13.2059 18.473 12.5616 18.0574 12.1459L17.7103 11.7988C18.1413 11.7856 18.5778 11.8068 19.0183 11.8626C19.3871 11.9093 19.7584 11.7945 20.0365 11.5475C21.1136 10.5906 22.3613 9.92383 23.745 9.56547C24.3137 9.41835 24.7109 8.90522 24.7109 8.31775V7.80771C25.0177 8.10952 25.3132 8.44287 25.5929 8.80415C25.8206 9.09815 26.1641 9.27948 26.5352 9.30165C27.974 9.38758 29.3259 9.79819 30.5533 10.522C31.0597 10.8205 31.7039 10.7387 32.1195 10.3231L32.4668 9.97591C32.48 10.4069 32.4588 10.8435 32.403 11.284C32.3563 11.6529 32.4711 12.0241 32.7182 12.3022C33.675 13.3793 34.3418 14.627 34.7001 16.0107C34.8474 16.5794 35.3606 16.9766 35.948 16.9766H36.4345C36.1384 17.2916 35.8137 17.586 35.4617 17.8586C35.1677 18.0863 34.9864 18.4298 34.9642 18.8009C34.9491 19.0536 34.923 19.3052 34.8872 19.5548H29.6455C29.7886 19.1513 29.8672 18.7176 29.8672 18.2657C29.8672 16.1333 28.1324 14.3985 26 14.3985C23.8676 14.3985 22.1328 16.1333 22.1328 18.2657C22.1328 18.7176 22.2114 19.1513 22.3545 19.5548H15.5662C15.8624 19.2397 16.1865 18.9451 16.5384 18.6726ZM27.2891 18.2656C27.2891 18.9764 26.7108 19.5547 26 19.5547C25.2892 19.5547 24.7109 18.9764 24.7109 18.2656C24.7109 17.5548 25.2892 16.9766 26 16.9766C26.7108 16.9766 27.2891 17.5548 27.2891 18.2656ZM11.8203 45.4219H9.24219V27.2891H11.8203C11.8203 27.2803 11.8204 40.0167 11.8203 45.4219ZM14.3984 39.5648V33.0603L22.5291 36.3125L14.3984 39.5648ZM37.6016 39.5648L29.4709 36.3125L37.6016 33.0603V39.5648ZM37.6016 30.2835L26 34.9242L14.3984 30.2835V27.2891H37.6016V30.2835ZM42.7578 45.4219H40.1797C40.1797 43.1353 40.1797 30.0464 40.1797 27.2891H42.7578V45.4219ZM45.4219 24.7109H6.57812V22.1328H45.4219V24.7109Z"/>
    </symbol>

    <symbol id="car">
        <path d="M37.2311 30.4117C34.1728 30.4117 31.6849 32.8997 31.6849 35.958C31.6849 39.0162 34.1728 41.5042 37.2311 41.5042C40.2899 41.5042 42.7773 39.0162 42.7773 35.958C42.7773 32.8997 40.2893 30.4117 37.2311 30.4117ZM37.2311 38.7311C35.7017 38.7311 34.458 37.4873 34.458 35.958C34.458 34.4286 35.7017 33.1849 37.2311 33.1849C38.7604 33.1849 40.0042 34.4286 40.0042 35.958C40.0042 37.4874 38.7604 38.7311 37.2311 38.7311Z"/>
        <path d="M18.2815 30.4117C15.2233 30.4117 12.7353 32.8997 12.7353 35.958C12.7353 39.0162 15.2233 41.5042 18.2815 41.5042C21.3398 41.5042 23.8278 39.0162 23.8278 35.958C23.8278 32.8997 21.3398 30.4117 18.2815 30.4117ZM18.2815 38.7311C16.7522 38.7311 15.5084 37.4873 15.5084 35.958C15.5084 34.4286 16.7522 33.1849 18.2815 33.1849C19.8104 33.1849 21.0546 34.4286 21.0546 35.958C21.0546 37.4874 19.8109 38.7311 18.2815 38.7311Z"/>
        <path d="M40.966 14.5367C40.7303 14.0685 40.251 13.7731 39.7269 13.7731H32.4243V16.5462H38.8718L42.6474 24.0558L45.1256 22.8097L40.966 14.5367Z"/>
        <path d="M33.0715 34.6177H22.5799V37.3908H33.0715V34.6177Z"/>
        <path d="M14.1218 34.6177H9.31515C8.54928 34.6177 7.92864 35.2384 7.92864 36.0042C7.92864 36.7701 8.54936 37.3907 9.31515 37.3907H14.1219C14.8878 37.3907 15.5084 36.77 15.5084 36.0042C15.5084 35.2383 14.8877 34.6177 14.1218 34.6177Z"/>
        <path d="M47.7088 26.1412L44.9815 22.6285C44.7195 22.2902 44.3151 22.0924 43.8866 22.0924H33.8109V12.3865C33.8109 11.6206 33.1902 11 32.4244 11H9.31515C8.54928 11 7.92864 11.6207 7.92864 12.3865C7.92864 13.1523 8.54936 13.773 9.31515 13.773H31.0378V23.4789C31.0378 24.2448 31.6586 24.8654 32.4243 24.8654H43.2076L45.2269 27.4666V34.6175H41.3907C40.6249 34.6175 40.0042 35.2382 40.0042 36.004C40.0042 36.7699 40.6249 37.3906 41.3907 37.3906H46.6134C47.3793 37.3906 47.9999 36.7698 48 36.004V26.9916C48 26.6838 47.8974 26.3843 47.7088 26.1412Z"/>
        <path d="M14.0294 27.5925H7.65123C6.88535 27.5925 6.26471 28.2132 6.26471 28.979C6.26471 29.7449 6.88544 30.3655 7.65123 30.3655H14.0293C14.7952 30.3655 15.4159 29.7448 15.4159 28.979C15.4159 28.2132 14.7952 27.5925 14.0294 27.5925Z"/>
        <path d="M17.2185 22.1386H5.38652C4.62073 22.1386 4 22.7594 4 23.5252C4 24.2911 4.62073 24.9117 5.38652 24.9117H17.2185C17.9844 24.9117 18.605 24.291 18.605 23.5252C18.605 22.7594 17.9844 22.1386 17.2185 22.1386Z"/>
        <path d="M19.4832 16.6849H7.65123C6.88535 16.6849 6.26471 17.3056 6.26471 18.0714C6.26471 18.8373 6.88544 19.4579 7.65123 19.4579H19.4832C20.2491 19.4579 20.8697 18.8372 20.8697 18.0714C20.8698 17.3056 20.2491 16.6849 19.4832 16.6849Z"/>
    </symbol>

    <symbol id="vk">
        <path d="M23.8692 17.5259C23.8692 17.4605 23.8038 17.3951 23.8038 17.3951C23.4114 16.6757 22.5613 15.6948 21.3842 14.6485C20.861 14.1253 20.5341 13.7984 20.4033 13.6022C20.1417 13.2752 20.0763 12.9482 20.2071 12.6212C20.3379 12.3597 20.6649 11.8365 21.3188 10.9864C21.6458 10.5286 21.9074 10.2016 22.1035 9.94004C23.5422 8.04358 24.1962 6.80108 24 6.27792L23.9346 6.14712C23.8692 5.95094 23.7384 5.88554 23.5422 5.82015C23.3461 5.75475 23.0845 5.75475 22.7575 5.82015H19.1608C19.0954 5.82015 19.03 5.82015 18.8992 5.82015C18.7684 5.82015 18.7684 5.88554 18.7684 5.88554H18.703L18.6376 5.95094C18.5722 5.95094 18.5722 6.01633 18.5068 6.08173C18.4414 6.14713 18.4414 6.21252 18.376 6.27792C17.9837 7.25884 17.5259 8.23977 17.0681 9.0899C16.7411 9.61306 16.4796 10.0708 16.218 10.4632C15.9564 10.8556 15.7602 11.1172 15.564 11.3133C15.3678 11.5095 15.2371 11.6403 15.1063 11.7711C14.9755 11.9019 14.8447 11.9019 14.7793 11.9019C14.7139 11.9019 14.6485 11.8365 14.5831 11.8365C14.4523 11.7711 14.3869 11.6403 14.3215 11.5095C14.2561 11.3787 14.1907 11.2479 14.1907 11.0518C14.1907 10.8556 14.1253 10.6594 14.1253 10.5286C14.1253 10.3978 14.1253 10.2016 14.1253 9.94004C14.1253 9.67846 14.1253 9.48227 14.1253 9.41688C14.1253 9.0899 14.1253 8.76293 14.1253 8.37056C14.1253 7.97819 14.1253 7.71661 14.1253 7.52042C14.1253 7.32424 14.1253 7.06266 14.1253 6.80108C14.1253 6.5395 14.1253 6.34331 14.0599 6.21252C14.0599 6.08173 13.9946 5.95094 13.9292 5.82015C13.8638 5.68936 13.7984 5.55857 13.6676 5.49317C13.5368 5.42778 13.406 5.36238 13.2752 5.29699C12.8174 5.1662 12.2943 5.1662 11.5749 5.1662C10.0055 5.1662 9.02452 5.23159 8.56676 5.49317C8.37057 5.55857 8.23978 5.68936 8.10899 5.88554C7.9782 6.08173 7.91281 6.14712 8.0436 6.21252C8.56676 6.27792 8.89373 6.4741 9.08992 6.73568L9.15531 6.86647C9.22071 6.99726 9.2861 7.19345 9.3515 7.45503C9.41689 7.71661 9.41689 8.04358 9.48229 8.37056C9.54768 8.95911 9.54768 9.48227 9.48229 9.94004C9.41689 10.3978 9.41689 10.7248 9.3515 10.921C9.2861 11.1825 9.2861 11.3787 9.15531 11.5095C9.08992 11.6403 9.02452 11.7711 9.02452 11.7711C9.02452 11.8365 8.95913 11.8365 8.95913 11.8365C8.82834 11.9019 8.76294 11.9019 8.63215 11.9019C8.50136 11.9019 8.37057 11.8365 8.23978 11.7057C8.0436 11.5749 7.91281 11.4441 7.71662 11.2479C7.52044 11.0518 7.32425 10.7902 7.12807 10.3978C6.93188 10.0054 6.6703 9.61306 6.40872 9.0899L6.21253 8.69753C6.08174 8.43595 5.88556 8.10898 5.68937 7.65121C5.49319 7.19345 5.297 6.80108 5.10082 6.34331C5.03542 6.21252 4.90463 6.08173 4.77384 5.95094H4.70845C4.64305 5.88554 4.57766 5.88554 4.51226 5.82015C4.44687 5.82015 4.31608 5.75475 4.25068 5.75475H0.850136C0.457766 5.75475 0.196185 5.88554 0.0653951 6.01633V6.08173C0 6.14713 0 6.21252 0 6.27792C0 6.34331 0 6.4741 0.0653951 6.60489C0.588556 7.782 1.11172 8.89372 1.70027 10.0054C2.28883 11.1172 2.81199 11.9673 3.20436 12.6212C3.66213 13.2752 4.0545 13.9291 4.51226 14.5177C4.97003 15.1063 5.23161 15.4986 5.42779 15.6294C5.55858 15.8256 5.68937 15.891 5.75477 16.0218L6.08174 16.3488C6.27793 16.5449 6.60491 16.8065 6.93188 17.0681C7.32425 17.3297 7.71662 17.5913 8.23978 17.9182C8.69755 18.1798 9.2861 18.4414 9.87466 18.5722C10.5286 18.7684 11.1172 18.8338 11.7057 18.7684H13.1444C13.406 18.7684 13.6676 18.6376 13.7984 18.5068L13.8638 18.4414C13.9292 18.376 13.9292 18.3106 13.9292 18.1798C13.9292 18.049 13.9946 17.9836 13.9946 17.8528C13.9946 17.5259 13.9946 17.1989 14.0599 16.8719C14.1253 16.6103 14.1907 16.3488 14.2561 16.218C14.3215 16.0872 14.4523 15.9564 14.5177 15.8256C14.6485 15.6948 14.7139 15.6948 14.7139 15.6294C14.7793 15.6294 14.7793 15.564 14.8447 15.564C15.0409 15.4986 15.3025 15.564 15.564 15.7602C15.8256 15.9564 16.0872 16.218 16.3488 16.4795C16.6104 16.7411 16.8719 17.0681 17.1989 17.4605C17.5259 17.7875 17.8529 18.1144 18.049 18.2452L18.3106 18.376C18.5068 18.5068 18.703 18.5722 18.9646 18.6376C19.2262 18.703 19.4877 18.7684 19.6839 18.703L22.8883 18.6376C23.2153 18.6376 23.4768 18.5722 23.6076 18.5068C23.8038 18.376 23.8692 18.3106 23.9346 18.1798C24 18.049 24 17.9182 23.9346 17.7221C23.9346 17.7221 23.9346 17.5913 23.8692 17.5259Z"/>
    </symbol>

    <symbol id="fb">
        <path d="M24 22.6921C24 23.4114 23.4114 24 22.6921 24H16.545V14.7139H19.6839L20.1417 11.1172H16.545V8.82834C16.545 7.78202 16.8065 7.06267 18.3106 7.06267H20.2071V3.79292C19.8801 3.72752 18.7684 3.66213 17.3951 3.66213C14.6485 3.66213 12.752 5.3624 12.752 8.43597V11.1172H9.61308V14.7139H12.752V24H1.3079C0.588556 24 0 23.4114 0 22.6921V1.3079C0 0.588556 0.588556 0 1.3079 0H22.6921C23.4114 0 24 0.588556 24 1.3079V22.6921Z"/>
    </symbol>

    <symbol id="inst">
        <path d="M21.1226 0H2.87738C1.3079 0 0 1.24251 0 2.81199V21.188C0 22.7575 1.3079 24 2.87738 24H21.1226C22.6921 24 24 22.7575 24 21.188V2.81199C24 1.24251 22.6921 0 21.1226 0ZM17.2643 3.72752C17.2643 3.33515 17.5913 3.00817 17.9837 3.00817H20.2725C20.6649 3.00817 20.9918 3.33515 20.9918 3.72752V5.95095C20.9918 6.34332 20.6649 6.6703 20.2725 6.6703H18.049C17.6567 6.6703 17.3297 6.34332 17.3297 5.95095L17.2643 3.72752ZM12.0327 7.38965C14.5831 7.38965 16.6757 9.41689 16.6757 11.9673C16.6757 14.5177 14.5831 16.545 12.0327 16.545C9.48229 16.545 7.38965 14.5177 7.38965 11.9673C7.38965 9.48229 9.48229 7.38965 12.0327 7.38965ZM21.7112 20.9918C21.7112 21.3842 21.3842 21.7112 20.9918 21.7112H3.00817C2.6158 21.7112 2.28883 21.3842 2.28883 20.9918V9.74387H5.23161C4.83924 10.3324 4.70845 11.3787 4.70845 12.0327C4.70845 16.0218 7.9782 19.2916 12.0327 19.2916C16.0872 19.2916 19.3569 16.0218 19.3569 12.0327C19.3569 11.3787 19.2916 10.3324 18.7684 9.74387H21.7766L21.7112 20.9918Z"/>
    </symbol>

    <symbol id="tw">
        <path d="M23.346 2.41963C22.3651 3.00818 21.3188 3.40055 20.2071 3.66213C19.2916 2.68121 18.049 2.09265 16.6104 2.09265C13.8638 2.09265 11.7057 4.38148 11.7057 7.12807C11.7057 7.52044 11.7711 7.91281 11.8365 8.30519C7.71662 8.0436 4.11989 6.01636 1.70027 2.94279C1.3079 3.66213 1.04632 4.57766 1.04632 5.4932C1.04632 7.25886 1.89646 8.76295 3.26975 9.67848C2.48501 9.67848 1.70027 9.4169 1.04632 9.02453V9.15532C1.04632 11.5749 2.74659 13.6676 4.97003 14.1253C4.57766 14.2561 4.11989 14.3215 3.66213 14.3215C3.33515 14.3215 3.00817 14.3215 2.74659 14.2561C3.40054 16.2834 5.16621 17.7221 7.32425 17.7875C5.62398 19.1608 3.53133 19.9455 1.17711 19.9455C0.784741 19.9455 0.392371 19.9455 0 19.8801C2.15804 21.3188 4.77384 22.1689 7.52044 22.1689C16.6104 22.1689 21.515 14.4523 21.515 7.78202C21.515 7.58584 21.515 7.32426 21.515 7.12807C22.4959 6.40873 23.346 5.55859 24 4.51227C23.1499 4.90464 22.1689 5.16622 21.188 5.29701C22.1689 4.57767 22.9537 3.59674 23.346 2.41963Z"/>
    </symbol>

    <symbol id="arrows">
        <path d="M18.2132 0.326128L11.5439 6.99543C11.1091 7.43012 11.1091 8.13505 11.5439 8.56983L14.693 11.7189C14.9565 11.9824 15.3191 12.0865 15.6606 12.0304V15.6602H12.0307C12.088 15.3124 11.9769 14.9502 11.7194 14.6927L8.57027 11.5436C8.13587 11.1091 7.43056 11.1088 6.99586 11.5436L0.326568 18.2128C-0.108205 18.6475 -0.108205 19.3525 0.326568 19.7873L6.99586 26.4566C7.43027 26.891 8.13557 26.8913 8.57027 26.4566L11.7194 23.3074C11.9771 23.0497 12.0879 22.6874 12.0307 22.3399H15.6605V25.9697C15.3191 25.9136 14.9563 26.0177 14.6929 26.2811L11.5438 29.4302C11.1091 29.8649 11.1091 30.5698 11.5438 31.0046L18.2131 37.6739C18.6479 38.1087 19.3528 38.1087 19.7875 37.6739L26.4568 31.0046C26.8912 30.5701 26.8916 29.8649 26.4568 29.4302L23.3077 26.2811C23.0443 26.0177 22.6816 25.9136 22.3402 25.9697V22.3399H25.9701C25.9128 22.6878 26.0239 23.05 26.2815 23.3074L29.4306 26.4566C29.865 26.8911 30.5703 26.8914 31.005 26.4566L37.6743 19.7873C38.109 19.3526 38.109 18.6477 37.6743 18.2129L31.005 11.5436C30.5706 11.1091 29.8653 11.1089 29.4306 11.5436L26.2815 14.6928C26.0237 14.9505 25.9129 15.3128 25.9701 15.6603H22.3402V12.0305C22.6816 12.0865 23.0443 11.9825 23.3077 11.7191L26.4568 8.56998C26.8914 8.1355 26.8915 7.43035 26.4568 6.99557L19.7875 0.326276C19.3528 -0.108571 18.6479 -0.108571 18.2132 0.326128ZM22.5206 9.35736L22.0142 8.85097C21.3157 8.15235 20.1137 8.64694 20.1137 9.63813V16.7735C20.1137 17.3884 20.6121 17.8868 21.2269 17.8868H28.3623C29.3507 17.8868 29.8502 16.687 29.1495 15.9864L28.6431 15.48L30.2178 13.9052L35.3127 19.0001L30.2179 24.0951L28.6432 22.5203L29.1496 22.0139C29.8484 21.315 29.3532 20.1134 28.3623 20.1134H21.2269C20.6121 20.1134 20.1137 20.6118 20.1137 21.2267V28.362C20.1137 29.3538 21.3162 29.8474 22.0141 29.1492L22.5205 28.6428L24.0952 30.2175L19.0004 35.3124L13.9056 30.2174L15.4802 28.6427L15.9867 29.1491C16.6853 29.848 17.8871 29.3529 17.8871 28.362V21.2267C17.8871 20.6118 17.3886 20.1134 16.7738 20.1134H9.63842C8.65005 20.1134 8.15056 21.3132 8.85126 22.0138L9.35765 22.5202L7.78295 24.095L2.68806 19.0001L7.78288 13.9051L9.35758 15.4799L8.85118 15.9863C8.15234 16.6852 8.64753 17.8868 9.63842 17.8868H16.7738C17.3886 17.8868 17.8871 17.3884 17.8871 16.7735V9.63813C17.8871 8.65021 16.6874 8.1502 15.9867 8.85097L15.4802 9.35736L13.9056 7.78266L19.0004 2.68769L24.0952 7.78266L22.5206 9.35736Z"/>

    </symbol>

    <symbol id="length">
        <path d="M11.0064 13.0953L11.0072 9L4 16.0096L11.0072 23.0185L11.0064 18.9232L20.992 18.9248V23.0185L28 16.0096L20.992 9V13.0953H11.0064Z"/>
    </symbol>

    <symbol id="width">
        <path d="M10.4085 17.4798L7.5133 14.5834L7.515 24.4948L17.4259 24.4959L14.5295 21.6007L21.5915 14.541L24.4861 17.4357L24.4856 7.52424L14.5736 7.52311L17.4694 10.4189L10.4085 17.4798Z"/>
    </symbol>

    <symbol id="time">
        <path d="M24 26H23V22.727C23 21.099 22.307 19.541 21.097 18.453L19.404 16.93C19.137 16.689 18.99 16.359 18.99 16C18.99 15.641 19.137 15.311 19.404 15.071L21.097 13.548C22.307 12.458 23 10.901 23 9.273V6H24C24.553 6 25 5.552 25 5C25 4.448 24.553 4 24 4H8C7.447 4 7 4.448 7 5C7 5.552 7.447 6 8 6H9V9.273C9 10.901 9.693 12.459 10.903 13.547L12.596 15.07C12.863 15.311 13.01 15.641 13.01 16C13.01 16.359 12.863 16.689 12.596 16.929L10.903 18.452C9.693 19.542 9 21.099 9 22.727V26H8C7.447 26 7 26.448 7 27C7 27.552 7.447 28 8 28H24C24.553 28 25 27.552 25 27C25 26.448 24.553 26 24 26ZM12 22.829C12 22.094 12.286 21.404 12.806 20.884L15.47 18.22C15.763 17.927 16.238 17.927 16.531 18.22L19.195 20.884C19.715 21.404 20.001 22.094 20.001 22.829V26H12V22.829Z"/>
    </symbol>

    <symbol id="weight">
        <path d="M26.983 25.137L24.8878 12.6207C24.6908 11.4406 23.6687 10.5781 22.4724 10.5781H19.3245C19.6937 9.93501 19.9047 9.19002 19.9047 8.39667C19.9047 5.97245 17.9328 4 15.5081 4C13.0838 4 11.1114 5.97245 11.1114 8.39667C11.1114 9.19002 11.3225 9.93501 11.6916 10.5781H8.54367C7.34689 10.5781 6.32532 11.4416 6.12828 12.6218L4.03366 25.1396C3.91461 25.8492 4.11476 26.5797 4.58006 27.1287C5.04588 27.6782 5.72901 28 6.44957 28H24.5686C25.2892 28 25.9723 27.6782 26.4381 27.1287C26.9029 26.5786 27.1025 25.8472 26.983 25.137ZM15.5086 6.56148C16.5203 6.56148 17.3438 7.38498 17.3438 8.39719C17.3438 9.40941 16.5203 10.2324 15.5086 10.2324C14.4964 10.2324 13.6729 9.40889 13.6729 8.39667C13.6729 7.38446 14.4964 6.56148 15.5086 6.56148Z"/>
    </symbol>

    <symbol id="thickness">
        <path d="M26.5938 9.48438H5.45312C4.6765 9.48438 4.04688 10.114 4.04688 10.8906C4.04688 11.6673 4.6765 12.2969 5.45312 12.2969H26.5938C27.3704 12.2969 28 11.6673 28 10.8906C28 10.114 27.3704 9.48438 26.5938 9.48438Z" />
        <path d="M27.0625 4H4.9375C4.41972 4 4 4.41972 4 4.9375C4 5.45528 4.41972 5.875 4.9375 5.875H27.0625C27.5803 5.875 28 5.45528 28 4.9375C28 4.41972 27.5803 4 27.0625 4Z" />
        <path d="M25.6562 23.3125H6.39062C5.09622 23.3125 4.04688 24.3618 4.04688 25.6562C4.04688 26.9507 5.09622 28 6.39062 28H25.6562C26.9507 28 28 26.9507 28 25.6562C28 24.3618 26.9507 23.3125 25.6562 23.3125Z" />
        <path d="M26.125 15.9062H5.92188C4.88636 15.9062 4.04688 16.7457 4.04688 17.7812C4.04688 18.8168 4.88636 19.6562 5.92188 19.6562H26.125C27.1605 19.6562 28 18.8168 28 17.7812C28 16.7457 27.1605 15.9062 26.125 15.9062Z" />

    </symbol>

    <symbol viewBox="0 0 15 29" id="arrow-left">
        <path d="M14 28L1.91422 15.9142C1.13317 15.1332 1.13317 13.8668 1.91421 13.0858L14 1" stroke-linecap="round"/>
    </symbol>

    <symbol viewBox="0 0 15 29" id="arrow-right">
        <path d="M1 1L13.0858 13.0858C13.8668 13.8668 13.8668 15.1332 13.0858 15.9142L1 28" stroke-linecap="round"/>
    </symbol>
</svg>
